<mxfile host="65bd71144e">
    <diagram id="neJhwrEVpQTxPfW6QeF7" name="Page-1">
        <mxGraphModel dx="678" dy="511" grid="1" gridSize="10" guides="1" tooltips="1" connect="1" arrows="1" fold="1" page="1" pageScale="1" pageWidth="850" pageHeight="1100" math="0" shadow="0">
            <root>
                <mxCell id="0"/>
                <mxCell id="1" parent="0"/>
                <object label="Arbeit" id="2">
                    <mxCell style="rounded=0;whiteSpace=wrap;html=1;" vertex="1" parent="1">
                        <mxGeometry x="80" y="90" width="60" height="30" as="geometry"/>
                    </mxCell>
                </object>
                <mxCell id="5" value="zu" style="rhombus;whiteSpace=wrap;html=1;" vertex="1" parent="1">
                    <mxGeometry x="260" y="67.5" width="40" height="75" as="geometry"/>
                </mxCell>
                <mxCell id="6" value="MA" style="rounded=0;whiteSpace=wrap;html=1;" vertex="1" parent="1">
                    <mxGeometry x="470" y="90" width="70" height="30" as="geometry"/>
                </mxCell>
                <mxCell id="7" value="n" style="endArrow=classic;startArrow=classic;html=1;exitX=1;exitY=0.5;exitDx=0;exitDy=0;entryX=0;entryY=0.5;entryDx=0;entryDy=0;" edge="1" parent="1" source="2" target="5">
                    <mxGeometry width="50" height="50" relative="1" as="geometry">
                        <mxPoint x="350" y="260" as="sourcePoint"/>
                        <mxPoint x="400" y="210" as="targetPoint"/>
                    </mxGeometry>
                </mxCell>
                <mxCell id="8" value="1" style="endArrow=classic;startArrow=classic;html=1;exitX=1;exitY=0.5;exitDx=0;exitDy=0;entryX=0;entryY=0.5;entryDx=0;entryDy=0;" edge="1" parent="1" source="5" target="6">
                    <mxGeometry width="50" height="50" relative="1" as="geometry">
                        <mxPoint x="359.9999999999999" y="119.28999999999999" as="sourcePoint"/>
                        <mxPoint x="440" y="119.28999999999999" as="targetPoint"/>
                    </mxGeometry>
                </mxCell>
            </root>
        </mxGraphModel>
    </diagram>
</mxfile>